<?xml version="1.0" encoding="utf-8"?>
<svg version="1.1" xmlns:xlink="http://www.w3.org/1999/xlink" width="23px" height="22px" xmlns="http://www.w3.org/2000/svg">
  <g transform="matrix(1 0 0 1 -286 -698 )">
    <path d="M 295.276257808027 706.100813061876  L 297.5 699.554402445639  L 299.723742191973 706.100813061876  L 306.841719571423 706.100813061876  L 301.083154905871 710.102749012112  L 303.297666424656 716.621985715305  L 297.5 712.592875852026  L 291.702333575344 716.621985715305  L 293.916845094129 710.102749012112  L 288.158280428577 706.100813061876  L 295.276257808027 706.100813061876  Z " fill-rule="nonzero" fill="#0000bf" stroke="none" />
    <path d="M 294.918089134667 705.600813061876  L 297.5 698  L 300.081910865333 705.600813061876  L 308.437149937394 705.600813061876  L 301.677619536031 710.298373876249  L 304.259530401363 717.899186938124  L 297.5 713.201626123751  L 290.740469598637 717.899186938124  L 293.322380463969 710.298373876249  L 286.562850062606 705.600813061876  L 294.918089134667 705.600813061876  Z M 297.5 701.108804891277  L 295.634426481387 706.600813061876  L 289.753710794548 706.600813061876  L 294.511309724288 709.907124147974  L 292.664197552052 715.344784492486  L 297.5 711.9841255803  L 302.335802447948 715.344784492486  L 300.488690275712 709.907124147974  L 305.246289205452 706.600813061876  L 299.365573518613 706.600813061876  L 297.5 701.108804891277  Z " fill-rule="nonzero" fill="#797979" stroke="none" />
  </g>
</svg>