<?xml version="1.0" encoding="utf-8"?>
<svg version="1.1" xmlns:xlink="http://www.w3.org/1999/xlink" width="23px" height="22px" xmlns="http://www.w3.org/2000/svg">
  <g transform="matrix(1 0 0 1 -356 -730 )">
    <path d="M 365.276257808027 738.100813061876  L 367.5 731.554402445639  L 369.723742191973 738.100813061876  L 376.841719571423 738.100813061876  L 371.083154905871 742.102749012112  L 373.297666424656 748.621985715305  L 367.5 744.592875852026  L 361.702333575344 748.621985715305  L 363.916845094129 742.102749012112  L 358.158280428577 738.100813061876  L 365.276257808027 738.100813061876  Z " fill-rule="nonzero" fill="#ffffff" stroke="none" />
    <path d="M 364.918089134667 737.600813061876  L 367.5 730  L 370.081910865333 737.600813061876  L 378.437149937394 737.600813061876  L 371.677619536031 742.298373876249  L 374.259530401363 749.899186938124  L 367.5 745.201626123751  L 360.740469598637 749.899186938124  L 363.322380463969 742.298373876249  L 356.562850062606 737.600813061876  L 364.918089134667 737.600813061876  Z M 367.5 733.108804891277  L 365.634426481387 738.600813061876  L 359.753710794548 738.600813061876  L 364.511309724288 741.907124147974  L 362.664197552052 747.344784492486  L 367.5 743.9841255803  L 372.335802447948 747.344784492486  L 370.488690275712 741.907124147974  L 375.246289205452 738.600813061876  L 369.365573518613 738.600813061876  L 367.5 733.108804891277  Z " fill-rule="nonzero" fill="#797979" stroke="none" />
  </g>
</svg>