<?xml version="1.0" encoding="utf-8"?>
<svg version="1.1" xmlns:xlink="http://www.w3.org/1999/xlink" width="23px" height="22px" xmlns="http://www.w3.org/2000/svg">
  <g transform="matrix(1 0 0 1 -288 -605 )">
    <path d="M 297.276257808027 613.100813061876  L 299.5 606.554402445639  L 301.723742191973 613.100813061876  L 308.841719571423 613.100813061876  L 303.083154905871 617.102749012112  L 305.297666424656 623.621985715305  L 299.5 619.592875852026  L 293.702333575344 623.621985715305  L 295.916845094129 617.102749012112  L 290.158280428577 613.100813061876  L 297.276257808027 613.100813061876  Z " fill-rule="nonzero" fill="#0000bf" stroke="none" />
    <path d="M 296.918089134667 612.600813061876  L 299.5 605  L 302.081910865333 612.600813061876  L 310.437149937394 612.600813061876  L 303.677619536031 617.298373876249  L 306.259530401363 624.899186938124  L 299.5 620.201626123751  L 292.740469598637 624.899186938124  L 295.322380463969 617.298373876249  L 288.562850062606 612.600813061876  L 296.918089134667 612.600813061876  Z M 299.5 608.108804891277  L 297.634426481387 613.600813061876  L 291.753710794548 613.600813061876  L 296.511309724288 616.907124147974  L 294.664197552052 622.344784492486  L 299.5 618.9841255803  L 304.335802447948 622.344784492486  L 302.488690275712 616.907124147974  L 307.246289205452 613.600813061876  L 301.365573518613 613.600813061876  L 299.5 608.108804891277  Z " fill-rule="nonzero" fill="#797979" stroke="none" />
  </g>
</svg>