<?xml version="1.0" encoding="utf-8"?>
<svg version="1.1" xmlns:xlink="http://www.w3.org/1999/xlink" width="23px" height="22px" xmlns="http://www.w3.org/2000/svg">
  <g transform="matrix(1 0 0 1 -358 -637 )">
    <path d="M 367.276257808027 645.100813061876  L 369.5 638.554402445639  L 371.723742191973 645.100813061876  L 378.841719571423 645.100813061876  L 373.083154905871 649.102749012112  L 375.297666424656 655.621985715305  L 369.5 651.592875852026  L 363.702333575344 655.621985715305  L 365.916845094129 649.102749012112  L 360.158280428577 645.100813061876  L 367.276257808027 645.100813061876  Z " fill-rule="nonzero" fill="#ffffff" stroke="none" />
    <path d="M 366.918089134667 644.600813061876  L 369.5 637  L 372.081910865333 644.600813061876  L 380.437149937394 644.600813061876  L 373.677619536031 649.298373876249  L 376.259530401363 656.899186938124  L 369.5 652.201626123751  L 362.740469598637 656.899186938124  L 365.322380463969 649.298373876249  L 358.562850062606 644.600813061876  L 366.918089134667 644.600813061876  Z M 369.5 640.108804891277  L 367.634426481387 645.600813061876  L 361.753710794548 645.600813061876  L 366.511309724288 648.907124147974  L 364.664197552052 654.344784492486  L 369.5 650.9841255803  L 374.335802447948 654.344784492486  L 372.488690275712 648.907124147974  L 377.246289205452 645.600813061876  L 371.365573518613 645.600813061876  L 369.5 640.108804891277  Z " fill-rule="nonzero" fill="#797979" stroke="none" />
  </g>
</svg>